<svg width="24" height="24" viewBox="0 0 24 24" fill="none" xmlns="http://www.w3.org/2000/svg">
<path d="M18.4698 16.8307L18.8598 19.9907C18.9598 20.8207 18.0698 21.4007 17.3598 20.9707L13.1698 18.4807C12.7098 18.4807 12.2599 18.4507 11.8199 18.3907C12.5599 17.5207 12.9998 16.4207 12.9998 15.2307C12.9998 12.3907 10.5398 10.0908 7.49985 10.0908C6.33985 10.0908 5.26985 10.4207 4.37985 11.0007C4.34985 10.7507 4.33984 10.5007 4.33984 10.2407C4.33984 5.69072 8.28985 2.00073 13.1698 2.00073C18.0498 2.00073 21.9998 5.69072 21.9998 10.2407C21.9998 12.9407 20.6098 15.3307 18.4698 16.8307Z" stroke="#464E5F" stroke-width="1.5" stroke-linecap="round" stroke-linejoin="round"/>
<path d="M13 15.2308C13 16.4208 12.56 17.5208 11.82 18.3908C10.83 19.5908 9.26 20.3608 7.5 20.3608L4.89 21.9108C4.45 22.1808 3.89 21.8108 3.95 21.3008L4.2 19.3308C2.86 18.4008 2 16.9108 2 15.2308C2 13.4708 2.94 11.9208 4.38 11.0008C5.27 10.4208 6.34 10.0908 7.5 10.0908C10.54 10.0908 13 12.3908 13 15.2308Z" stroke="#464E5F" stroke-width="1.5" stroke-linecap="round" stroke-linejoin="round"/>
</svg>
