<svg width="13" height="14" viewBox="0 0 13 14" fill="none" xmlns="http://www.w3.org/2000/svg">
<path d="M12.2928 1C12.1053 0.81253 11.851 0.707214 11.5858 0.707214C11.3206 0.707214 11.0663 0.81253 10.8788 1L6.29279 5.586L1.70679 1C1.51926 0.81253 1.26495 0.707214 0.999786 0.707214C0.734622 0.707214 0.480314 0.81253 0.292787 1C0.105316 1.18753 0 1.44184 0 1.707C0 1.97217 0.105316 2.22647 0.292787 2.414L4.87879 7L0.292787 11.586C0.105316 11.7735 0 12.0278 0 12.293C0 12.5582 0.105316 12.8125 0.292787 13C0.480314 13.1875 0.734622 13.2928 0.999786 13.2928C1.26495 13.2928 1.51926 13.1875 1.70679 13L6.29279 8.414L10.8788 13C11.0663 13.1875 11.3206 13.2928 11.5858 13.2928C11.851 13.2928 12.1053 13.1875 12.2928 13C12.4803 12.8125 12.5856 12.5582 12.5856 12.293C12.5856 12.0278 12.4803 11.7735 12.2928 11.586L7.70679 7L12.2928 2.414C12.4803 2.22647 12.5856 1.97217 12.5856 1.707C12.5856 1.44184 12.4803 1.18753 12.2928 1Z" fill="#374957"/>
</svg>
