<svg width="44" height="44" viewBox="0 0 44 44" fill="none" xmlns="http://www.w3.org/2000/svg">
<rect width="44" height="44" transform="translate(0 0.000366211)" fill="#DCE0E4" fill-opacity="0.5"/>
<path d="M17.0674 12.6354V15.5245" stroke="#464E5F" stroke-width="1.6509" stroke-miterlimit="10" stroke-linecap="round" stroke-linejoin="round"/>
<path d="M24.772 12.6354V15.5245" stroke="#464E5F" stroke-width="1.6509" stroke-miterlimit="10" stroke-linecap="round" stroke-linejoin="round"/>
<path d="M12.7334 19.4633H29.1048" stroke="#464E5F" stroke-width="1.6509" stroke-miterlimit="10" stroke-linecap="round" stroke-linejoin="round"/>
<path d="M29.5869 18.895V27.0807C29.5869 29.9698 28.1424 31.8958 24.7718 31.8958H17.0676C13.697 31.8958 12.2524 29.9698 12.2524 27.0807V18.895C12.2524 16.0059 13.697 14.0798 17.0676 14.0798H24.7718C28.1424 14.0798 29.5869 16.0059 29.5869 18.895Z" stroke="#464E5F" stroke-width="1.6509" stroke-miterlimit="10" stroke-linecap="round" stroke-linejoin="round"/>
<path d="M24.4777 23.9028H24.4863" stroke="#464E5F" stroke-width="1.6509" stroke-linecap="round" stroke-linejoin="round"/>
<path d="M24.4777 26.7918H24.4863" stroke="#464E5F" stroke-width="1.6509" stroke-linecap="round" stroke-linejoin="round"/>
<path d="M20.9152 23.9028H20.9238" stroke="#464E5F" stroke-width="1.6509" stroke-linecap="round" stroke-linejoin="round"/>
<path d="M20.9152 26.7918H20.9238" stroke="#464E5F" stroke-width="1.6509" stroke-linecap="round" stroke-linejoin="round"/>
<path d="M17.3507 23.9028H17.3594" stroke="#464E5F" stroke-width="1.6509" stroke-linecap="round" stroke-linejoin="round"/>
<path d="M17.3507 26.7918H17.3594" stroke="#464E5F" stroke-width="1.6509" stroke-linecap="round" stroke-linejoin="round"/>
</svg>
