<svg width="25" height="25" viewBox="0 0 25 25" fill="none" xmlns="http://www.w3.org/2000/svg">
<circle cx="12.5" cy="12.5" r="12.5" fill="#0F2BB3"/>
<g clip-path="url(#clip0_2_24640)">
<path d="M18.6697 10.331L17.5892 11.4115C17.4791 11.5216 17.301 11.5216 17.1908 11.4115L14.5892 8.80991C14.4791 8.69975 14.4791 8.52162 14.5892 8.41147L15.6697 7.331C16.108 6.89272 16.8205 6.89272 17.2611 7.331L18.6697 8.73959C19.1103 9.17788 19.1103 9.89038 18.6697 10.331ZM13.6611 9.33959L7.50643 15.4943L7.00955 18.3419C6.94158 18.7263 7.27674 19.0591 7.66111 18.9935L10.5088 18.4943L16.6635 12.3396C16.7736 12.2294 16.7736 12.0513 16.6635 11.9412L14.0619 9.33959C13.9494 9.22944 13.7713 9.22944 13.6611 9.33959ZM9.90877 14.9669C9.77986 14.838 9.77986 14.6318 9.90877 14.5029L13.5181 10.8935C13.6471 10.7646 13.8533 10.7646 13.9822 10.8935C14.1111 11.0224 14.1111 11.2287 13.9822 11.3576L10.3728 14.9669C10.2439 15.0958 10.0377 15.0958 9.90877 14.9669ZM9.06268 16.938H10.1877V17.7888L8.67596 18.0537L7.94705 17.3247L8.2119 15.813H9.06268V16.938Z" fill="white"/>
</g>
<defs>
<clipPath id="clip0_2_24640">
<rect width="12" height="12" fill="white" transform="translate(7 7)"/>
</clipPath>
</defs>
</svg>
