<svg width="41" height="40" viewBox="0 0 41 40" fill="none" xmlns="http://www.w3.org/2000/svg">
<rect x="2.5" y="2" width="36" height="36" rx="18" fill="#EEECFF"/>
<rect x="2.5" y="2" width="36" height="36" rx="18" stroke="#F9F5FF" stroke-width="4"/>
<g clip-path="url(#clip0_49_6415)">
<path d="M22.6666 22.6667L20 20M20 20L17.3333 22.6667M20 20V26M25.5933 24.26C26.2435 23.9055 26.7572 23.3446 27.0532 22.6658C27.3493 21.9869 27.4108 21.2288 27.2281 20.5111C27.0454 19.7934 26.629 19.157 26.0444 18.7023C25.4599 18.2476 24.7406 18.0005 24 18H23.16C22.9582 17.2195 22.5821 16.4949 22.0599 15.8807C21.5378 15.2664 20.8832 14.7786 20.1454 14.4537C19.4075 14.1289 18.6057 13.9756 17.8001 14.0053C16.9944 14.0349 16.206 14.2469 15.4941 14.6251C14.7822 15.0034 14.1652 15.5381 13.6897 16.1891C13.2142 16.8401 12.8924 17.5904 12.7486 18.3836C12.6048 19.1768 12.6427 19.9924 12.8594 20.7689C13.0762 21.5453 13.4661 22.2626 14 22.8667" stroke="#0F2BB3" stroke-width="2" stroke-linecap="round" stroke-linejoin="round"/>
</g>
<defs>
<clipPath id="clip0_49_6415">
<rect width="16" height="16" fill="white" transform="translate(12 12)"/>
</clipPath>
</defs>
</svg>
