<svg width="18" height="14" viewBox="0 0 18 14" fill="none" xmlns="http://www.w3.org/2000/svg">
<path d="M1.25 0.75H16.25C16.5815 0.75 16.8995 0.881696 17.1339 1.11612C17.3683 1.35054 17.5 1.66848 17.5 2C17.5 2.33152 17.3683 2.64946 17.1339 2.88388C16.8995 3.1183 16.5815 3.25 16.25 3.25H1.25C0.918479 3.25 0.600537 3.1183 0.366117 2.88388C0.131696 2.64946 0 2.33152 0 2C0 1.66848 0.131696 1.35054 0.366117 1.11612C0.600537 0.881696 0.918479 0.75 1.25 0.75ZM1.25 10.75H16.25C16.5815 10.75 16.8995 10.8817 17.1339 11.1161C17.3683 11.3505 17.5 11.6685 17.5 12C17.5 12.3315 17.3683 12.6495 17.1339 12.8839C16.8995 13.1183 16.5815 13.25 16.25 13.25H1.25C0.918479 13.25 0.600537 13.1183 0.366117 12.8839C0.131696 12.6495 0 12.3315 0 12C0 11.6685 0.131696 11.3505 0.366117 11.1161C0.600537 10.8817 0.918479 10.75 1.25 10.75ZM1.25 5.75H16.25C16.5815 5.75 16.8995 5.8817 17.1339 6.11612C17.3683 6.35054 17.5 6.66848 17.5 7C17.5 7.33152 17.3683 7.64946 17.1339 7.88388C16.8995 8.1183 16.5815 8.25 16.25 8.25H1.25C0.918479 8.25 0.600537 8.1183 0.366117 7.88388C0.131696 7.64946 0 7.33152 0 7C0 6.66848 0.131696 6.35054 0.366117 6.11612C0.600537 5.8817 0.918479 5.75 1.25 5.75Z" fill="#64748B"/>
</svg>
