<svg width="20" height="17" viewBox="0 0 20 17" fill="none" xmlns="http://www.w3.org/2000/svg">
<path d="M18 3.25001H10.0603L7.5 0.689695C7.36122 0.549801 7.19601 0.438889 7.01398 0.363407C6.83196 0.287925 6.63674 0.249378 6.43969 0.250008H1.5C1.10218 0.250008 0.720644 0.408043 0.43934 0.689347C0.158035 0.970652 0 1.35218 0 1.75001V15.3081C0.000496116 15.6904 0.152567 16.0568 0.422863 16.3271C0.69316 16.5974 1.05962 16.7495 1.44188 16.75H18.0834C18.459 16.7495 18.819 16.6001 19.0846 16.3346C19.3501 16.069 19.4995 15.709 19.5 15.3334V4.75001C19.5 4.35218 19.342 3.97065 19.0607 3.68935C18.7794 3.40804 18.3978 3.25001 18 3.25001ZM1.5 1.75001H6.43969L7.93969 3.25001H1.5V1.75001ZM18 15.25H1.5V4.75001H18V15.25Z" fill="#464E5F"/>
</svg>
