<svg width="17" height="17" viewBox="0 0 17 17" fill="none" xmlns="http://www.w3.org/2000/svg">
<mask id="mask0_554_695" style="mask-type:luminance" maskUnits="userSpaceOnUse" x="0" y="0" width="17" height="17">
<rect x="0.499756" y="0.500214" width="16" height="16" fill="white"/>
</mask>
<g mask="url(#mask0_554_695)">
<path fill-rule="evenodd" clip-rule="evenodd" d="M16.4998 8.50021C16.4998 8.50021 13.4998 3.00021 8.49976 3.00021C3.49976 3.00021 0.499756 8.50021 0.499756 8.50021C0.499756 8.50021 3.49976 14.0002 8.49976 14.0002C13.4998 14.0002 16.4998 8.50021 16.4998 8.50021ZM1.67276 8.50021C2.15628 9.23509 2.71241 9.91953 3.33276 10.5432C4.61976 11.8322 6.37976 13.0002 8.49976 13.0002C10.6198 13.0002 12.3788 11.8322 13.6678 10.5432C14.2881 9.91952 14.8442 9.23509 15.3278 8.50022C14.8442 7.76534 14.2881 7.0809 13.6678 6.45721C12.3788 5.16821 10.6188 4.00021 8.49976 4.00021C6.37976 4.00021 4.62076 5.16821 3.33176 6.45721C2.7114 7.0809 2.15527 7.76534 1.67175 8.50022L1.67276 8.50021Z" fill="#BEBEBE"/>
<path fill-rule="evenodd" clip-rule="evenodd" d="M8.49976 6.00021C7.11905 6.00021 5.99976 7.1195 5.99976 8.50021C5.99975 9.88092 7.11903 11.0002 8.49974 11.0002C9.88045 11.0002 10.9997 9.88094 10.9998 8.50023C10.9998 7.11952 9.88048 6.00022 8.49977 6.00021H8.49976ZM4.99976 8.50021C4.99976 7.24978 5.66685 6.09434 6.74976 5.46913C7.83266 4.84391 9.16685 4.84391 10.2498 5.46912C11.3327 6.09434 11.9998 7.24978 11.9998 8.50021C11.9998 9.75064 11.3327 10.9061 10.2498 11.5313C9.16685 12.1565 7.83266 12.1565 6.74976 11.5313C5.66685 10.9061 4.99976 9.75064 4.99976 8.50021V8.50021Z" fill="#BEBEBE"/>
</g>
</svg>
