<svg width="20" height="20" viewBox="0 0 20 20" fill="none" xmlns="http://www.w3.org/2000/svg">
<path d="M10 5.00085C10.1658 5.00085 10.3247 5.0667 10.4419 5.18391C10.5592 5.30112 10.625 5.46009 10.625 5.62585V9.37585H14.375C14.5408 9.37585 14.6997 9.4417 14.8169 9.55891C14.9342 9.67612 15 9.83509 15 10.0009C15 10.1666 14.9342 10.3256 14.8169 10.4428C14.6997 10.56 14.5408 10.6259 14.375 10.6259H10.625V14.3759C10.625 14.5416 10.5592 14.7006 10.4419 14.8178C10.3247 14.935 10.1658 15.0009 10 15.0009C9.83424 15.0009 9.67527 14.935 9.55806 14.8178C9.44085 14.7006 9.375 14.5416 9.375 14.3759V10.6259H5.625C5.45924 10.6259 5.30027 10.56 5.18306 10.4428C5.06585 10.3256 5 10.1666 5 10.0009C5 9.83509 5.06585 9.67612 5.18306 9.55891C5.30027 9.4417 5.45924 9.37585 5.625 9.37585H9.375V5.62585C9.375 5.46009 9.44085 5.30112 9.55806 5.18391C9.67527 5.0667 9.83424 5.00085 10 5.00085Z" fill="#7B8190"/>
</svg>
