<svg width="24" height="24" viewBox="0 0 24 24" fill="none" xmlns="http://www.w3.org/2000/svg">
<path d="M12 15.7516C9.93 15.7516 8.25 14.0716 8.25 12.0016C8.25 9.93159 9.93 8.25159 12 8.25159C14.07 8.25159 15.75 9.93159 15.75 12.0016C15.75 14.0716 14.07 15.7516 12 15.7516ZM12 9.75159C10.76 9.75159 9.75 10.7616 9.75 12.0016C9.75 13.2416 10.76 14.2516 12 14.2516C13.24 14.2516 14.25 13.2416 14.25 12.0016C14.25 10.7616 13.24 9.75159 12 9.75159Z" fill="#464E5F"/>
<path d="M15.21 22.1916C15 22.1916 14.79 22.1616 14.58 22.1116C13.96 21.9416 13.44 21.5516 13.11 21.0016L12.99 20.8016C12.4 19.7816 11.59 19.7816 11 20.8016L10.89 20.9916C10.56 21.5516 10.04 21.9516 9.42 22.1116C8.79 22.2816 8.14 22.1916 7.59 21.8616L5.87 20.8716C5.26 20.5216 4.82 19.9516 4.63 19.2616C4.45 18.5716 4.54 17.8616 4.89 17.2516C5.18 16.7416 5.26 16.2816 5.09 15.9916C4.92 15.7016 4.49 15.5316 3.9 15.5316C2.44 15.5316 1.25 14.3416 1.25 12.8816V11.1216C1.25 9.66163 2.44 8.47163 3.9 8.47163C4.49 8.47163 4.92 8.30163 5.09 8.01163C5.26 7.72163 5.19 7.26163 4.89 6.75163C4.54 6.14163 4.45 5.42163 4.63 4.74163C4.81 4.05163 5.25 3.48163 5.87 3.13163L7.6 2.14163C8.73 1.47163 10.22 1.86163 10.9 3.01163L11.02 3.21163C11.61 4.23163 12.42 4.23163 13.01 3.21163L13.12 3.02163C13.8 1.86163 15.29 1.47163 16.43 2.15163L18.15 3.14163C18.76 3.49163 19.2 4.06163 19.39 4.75163C19.57 5.44163 19.48 6.15163 19.13 6.76163C18.84 7.27163 18.76 7.73163 18.93 8.02163C19.1 8.31163 19.53 8.48163 20.12 8.48163C21.58 8.48163 22.77 9.67163 22.77 11.1316V12.8916C22.77 14.3516 21.58 15.5416 20.12 15.5416C19.53 15.5416 19.1 15.7116 18.93 16.0016C18.76 16.2916 18.83 16.7516 19.13 17.2616C19.48 17.8716 19.58 18.5916 19.39 19.2716C19.21 19.9616 18.77 20.5316 18.15 20.8816L16.42 21.8716C16.04 22.0816 15.63 22.1916 15.21 22.1916ZM12 18.4916C12.89 18.4916 13.72 19.0516 14.29 20.0416L14.4 20.2316C14.52 20.4416 14.72 20.5916 14.96 20.6516C15.2 20.7116 15.44 20.6816 15.64 20.5616L17.37 19.5616C17.63 19.4116 17.83 19.1616 17.91 18.8616C17.99 18.5616 17.95 18.2516 17.8 17.9916C17.23 17.0116 17.16 16.0016 17.6 15.2316C18.04 14.4616 18.95 14.0216 20.09 14.0216C20.73 14.0216 21.24 13.5116 21.24 12.8716V11.1116C21.24 10.4816 20.73 9.96163 20.09 9.96163C18.95 9.96163 18.04 9.52163 17.6 8.75163C17.16 7.98163 17.23 6.97163 17.8 5.99163C17.95 5.73163 17.99 5.42163 17.91 5.12163C17.83 4.82163 17.64 4.58163 17.38 4.42163L15.65 3.43163C15.22 3.17163 14.65 3.32163 14.39 3.76163L14.28 3.95163C13.71 4.94163 12.88 5.50163 11.99 5.50163C11.1 5.50163 10.27 4.94163 9.7 3.95163L9.59 3.75163C9.34 3.33163 8.78 3.18163 8.35 3.43163L6.62 4.43163C6.36 4.58163 6.16 4.83163 6.08 5.13163C6 5.43163 6.04 5.74163 6.19 6.00163C6.76 6.98163 6.83 7.99163 6.39 8.76163C5.95 9.53163 5.04 9.97163 3.9 9.97163C3.26 9.97163 2.75 10.4816 2.75 11.1216V12.8816C2.75 13.5116 3.26 14.0316 3.9 14.0316C5.04 14.0316 5.95 14.4716 6.39 15.2416C6.83 16.0116 6.76 17.0216 6.19 18.0016C6.04 18.2616 6 18.5716 6.08 18.8716C6.16 19.1716 6.35 19.4116 6.61 19.5716L8.34 20.5616C8.55 20.6916 8.8 20.7216 9.03 20.6616C9.27 20.6016 9.47 20.4416 9.6 20.2316L9.71 20.0416C10.28 19.0616 11.11 18.4916 12 18.4916Z" fill="#464E5F"/>
</svg>
