<svg width="24" height="24" viewBox="0 0 24 24" fill="none" xmlns="http://www.w3.org/2000/svg">
<mask id="path-1-inside-1_49_6957" fill="white">
<path d="M4.49512 9.24998H19.4951V10.75H4.49512V9.24998ZM7.87012 14H16.1201V15.5H7.87012V14ZM10.1201 18.75H13.8701V20.25H10.1201V18.75ZM2.24512 4.5H21.7451V6H2.24512V4.5Z"/>
</mask>
<path d="M4.49512 9.24998H19.4951V10.75H4.49512V9.24998ZM7.87012 14H16.1201V15.5H7.87012V14ZM10.1201 18.75H13.8701V20.25H10.1201V18.75ZM2.24512 4.5H21.7451V6H2.24512V4.5Z" fill="#E4A951"/>
<path d="M4.49512 9.24998V7.24998H2.49512V9.24998H4.49512ZM19.4951 9.24998H21.4951V7.24998H19.4951V9.24998ZM19.4951 10.75V12.75H21.4951V10.75H19.4951ZM4.49512 10.75H2.49512V12.75H4.49512V10.75ZM7.87012 14V12H5.87012V14H7.87012ZM16.1201 14H18.1201V12H16.1201V14ZM16.1201 15.5V17.5H18.1201V15.5H16.1201ZM7.87012 15.5H5.87012V17.5H7.87012V15.5ZM10.1201 18.75V16.75H8.12012V18.75H10.1201ZM13.8701 18.75H15.8701V16.75H13.8701V18.75ZM13.8701 20.25V22.25H15.8701V20.25H13.8701ZM10.1201 20.25H8.12012V22.25H10.1201V20.25ZM2.24512 4.5V2.5H0.245117V4.5H2.24512ZM21.7451 4.5H23.7451V2.5H21.7451V4.5ZM21.7451 6V8H23.7451V6H21.7451ZM2.24512 6H0.245117V8H2.24512V6ZM4.49512 11.25H19.4951V7.24998H4.49512V11.25ZM17.4951 9.24998V10.75H21.4951V9.24998H17.4951ZM19.4951 8.74999H4.49512V12.75H19.4951V8.74999ZM6.49512 10.75V9.24998H2.49512V10.75H6.49512ZM7.87012 16H16.1201V12H7.87012V16ZM14.1201 14V15.5H18.1201V14H14.1201ZM16.1201 13.5H7.87012V17.5H16.1201V13.5ZM9.87012 15.5V14H5.87012V15.5H9.87012ZM10.1201 20.75H13.8701V16.75H10.1201V20.75ZM11.8701 18.75V20.25H15.8701V18.75H11.8701ZM13.8701 18.25H10.1201V22.25H13.8701V18.25ZM12.1201 20.25V18.75H8.12012V20.25H12.1201ZM2.24512 6.5H21.7451V2.5H2.24512V6.5ZM19.7451 4.5V6H23.7451V4.5H19.7451ZM21.7451 4H2.24512V8H21.7451V4ZM4.24512 6V4.5H0.245117V6H4.24512Z" fill="#64748B" mask="url(#path-1-inside-1_49_6957)"/>
</svg>
