<svg width="24" height="24" viewBox="0 0 24 24" fill="none" xmlns="http://www.w3.org/2000/svg">
<g opacity="0.8">
<path d="M14.6532 11.4668L14.654 11.4675C14.7242 11.5372 14.78 11.6202 14.8181 11.7116C14.8562 11.803 14.8758 11.901 14.8758 12C14.8758 12.099 14.8562 12.197 14.8181 12.2884C14.78 12.3798 14.7242 12.4628 14.654 12.5325L14.6532 12.5332L10.4139 16.7725C10.4138 16.7726 10.4137 16.7728 10.4136 16.7729C10.3436 16.8422 10.2606 16.8971 10.1694 16.9343C10.078 16.9717 9.98015 16.9906 9.88145 16.99L9.87856 16.99C9.77985 16.9906 9.68201 16.9717 9.59063 16.9343C9.49952 16.8971 9.41663 16.8423 9.34668 16.7731C9.20738 16.6327 9.12921 16.4428 9.12921 16.245C9.12921 16.047 9.2075 15.8571 9.34698 15.7166C9.34709 15.7165 9.3472 15.7164 9.34731 15.7162L12.8868 12.1768L13.0636 12L12.8868 11.8232L9.34731 8.28374C9.34723 8.28366 9.34714 8.28358 9.34706 8.2835C9.20753 8.143 9.12921 7.95302 9.12921 7.75499C9.12921 7.55685 9.20762 7.36677 9.34731 7.22624L9.3475 7.22604C9.41723 7.15575 9.50018 7.09995 9.59157 7.06188C9.68297 7.0238 9.78099 7.0042 9.88 7.0042C9.97901 7.0042 10.077 7.0238 10.1684 7.06188C10.2598 7.09995 10.3428 7.15575 10.4125 7.22604L10.4125 7.22605L10.4132 7.22677L14.6532 11.4668Z" fill="#464E5F" stroke="white" stroke-width="0.5"/>
</g>
</svg>
