<svg width="24" height="24" viewBox="0 0 24 24" fill="none" xmlns="http://www.w3.org/2000/svg">
<g opacity="0.6">
<path d="M10.2164 12.0551L10.25 11.9971V11.93V7C10.25 6.80109 10.329 6.61032 10.4697 6.46967C10.6103 6.32902 10.8011 6.25 11 6.25C11.1989 6.25 11.3897 6.32902 11.5303 6.46967C11.671 6.61032 11.75 6.80109 11.75 7V11.9775L11.734 12.0653L11.7273 12.1025L11.7318 12.14C11.7501 12.2912 11.722 12.4443 11.6512 12.579L10.1535 15.1751L10.1533 15.1754C10.0537 15.3487 9.88937 15.4753 9.69645 15.5274C9.50354 15.5795 9.29783 15.5528 9.12458 15.4532C8.95132 15.3537 8.82472 15.1894 8.77262 14.9964C8.72055 14.8036 8.74716 14.598 8.8466 14.4249C8.84665 14.4248 8.8467 14.4247 8.84676 14.4246L10.2164 12.0551ZM5.58319 3.89317C7.18657 2.82183 9.07164 2.25 11 2.25C12.2804 2.25 13.5482 2.50219 14.7312 2.99217C15.9141 3.48216 16.9889 4.20034 17.8943 5.10571C18.7997 6.01108 19.5178 7.08591 20.0078 8.26884C20.4978 9.45176 20.75 10.7196 20.75 12C20.75 13.9284 20.1782 15.8134 19.1068 17.4168C18.0355 19.0202 16.5127 20.2699 14.7312 21.0078C12.9496 21.7458 10.9892 21.9389 9.09787 21.5627C7.20656 21.1865 5.46928 20.2579 4.10571 18.8943C2.74215 17.5307 1.81355 15.7934 1.43735 13.9021C1.06114 12.0108 1.25422 10.0504 1.99218 8.26884C2.73013 6.48726 3.97982 4.96452 5.58319 3.89317ZM6.41655 18.8596C7.77326 19.7661 9.36831 20.25 11 20.25C13.188 20.25 15.2865 19.3808 16.8336 17.8336C18.3808 16.2865 19.25 14.188 19.25 12C19.25 10.3683 18.7661 8.77325 17.8596 7.41655C16.9531 6.05984 15.6646 5.00242 14.1571 4.37799C12.6497 3.75357 10.9909 3.59019 9.39051 3.90852C7.79017 4.22685 6.32016 5.01259 5.16637 6.16637C4.01259 7.32015 3.22685 8.79016 2.90853 10.3905C2.5902 11.9908 2.75358 13.6496 3.378 15.1571C4.00242 16.6646 5.05984 17.9531 6.41655 18.8596Z" fill="#464E5F" stroke="white" stroke-width="0.5"/>
</g>
</svg>
