<svg width="24" height="24" viewBox="0 0 24 24" fill="none" xmlns="http://www.w3.org/2000/svg">
<g opacity="0.6">
<path d="M22.5858 10.5275L22.5858 10.5276L22.59 10.5325C22.6642 10.6192 22.7177 10.7217 22.7463 10.8322C22.7746 10.9419 22.7778 11.0565 22.7555 11.1676L21.0762 18.5949L21.0759 18.5958C20.9406 19.2055 20.6019 19.7509 20.1154 20.1424C19.6291 20.5338 19.0241 20.748 18.3999 20.75C18.3997 20.75 18.3995 20.75 18.3993 20.75L4 20.75C3.27065 20.75 2.57118 20.4603 2.05546 19.9446C1.53973 19.4288 1.25 18.7294 1.25 18V6.00001C1.25 5.27066 1.53973 4.57119 2.05546 4.05546C2.57118 3.53974 3.27065 3.25001 4 3.25001L7.56 3.25001L7.56096 3.25001C8.13146 3.24781 8.68851 3.42309 9.15496 3.75157C9.62039 4.07934 9.97261 4.54346 10.1631 5.07986L10.4819 6.0762L10.5375 6.25001H10.72H17C17.7293 6.25001 18.4288 6.53974 18.9445 7.05546C19.4603 7.57119 19.75 8.27066 19.75 9.00001V10V10.25H20L22 10.25L22.0009 10.25C22.1129 10.2496 22.2236 10.2744 22.3248 10.3224C22.4261 10.3704 22.5153 10.4405 22.5858 10.5275ZM5.6139 18.2749L5.61421 18.2735L7.24389 10.8349C7.24394 10.8347 7.24399 10.8345 7.24404 10.8343C7.28225 10.6653 7.37773 10.5149 7.51429 10.4083C7.65104 10.3017 7.82052 10.2457 7.99389 10.2499L7.99389 10.25H8H18H18.25V10V9.00001C18.25 8.66849 18.1183 8.35054 17.8839 8.11612C17.6495 7.8817 17.3315 7.75001 17 7.75001H10.0064C9.85763 7.74178 9.71463 7.68943 9.59568 7.59955C9.47545 7.50871 9.38538 7.38377 9.33719 7.24102C9.33711 7.24077 9.33703 7.24053 9.33695 7.24029L8.79746 5.60182L8.79746 5.60182L8.79697 5.60035C8.71 5.34162 8.54072 5.11847 8.31501 4.96499C8.0912 4.8128 7.82408 4.73739 7.55384 4.75001H4C3.66848 4.75001 3.35054 4.8817 3.11612 5.11612C2.8817 5.35054 2.75 5.66849 2.75 6.00001V18C2.75 18.3315 2.8817 18.6495 3.11612 18.8839C3.35054 19.1183 3.66848 19.25 4 19.25H4.36711C4.65494 19.2563 4.93616 19.163 5.16322 18.9859C5.39113 18.8082 5.55039 18.5569 5.6139 18.2749ZM6.98318 18.8949L6.81856 19.25H7.21H18.3671C18.6549 19.2563 18.9362 19.163 19.1632 18.9859C19.3909 18.8084 19.55 18.5575 19.6137 18.2759C19.6137 18.2756 19.6138 18.2753 19.6139 18.2749L21.0436 12.056L21.114 11.75H20.8H8.8H8.59952L8.55597 11.9457L7.07597 18.5957L7.07573 18.5956L7.07382 18.6065C7.0562 18.7061 7.02574 18.8031 6.98318 18.8949Z" fill="#464E5F" stroke="white" stroke-width="0.5"/>
</g>
</svg>
